<svg width="14" height="20" viewBox="0 0 14 20" fill="none" color='#000' xmlns="http://www.w3.org/2000/svg">
<path d="M12.9211 3.42484C11.7073 1.33015 9.55137 0.0504272 7.15391 0.001521C7.05157 -0.000588379 6.94856 -0.000588379 6.84618 0.001521C4.44876 0.0504272 2.29282 1.33015 1.07899 3.42484C-0.161713 5.56594 -0.195658 8.13781 0.98817 10.3046L5.94766 19.3823C5.94989 19.3863 5.95212 19.3903 5.95442 19.3943C6.17262 19.7736 6.56352 20 7.00012 20C7.43669 20 7.82758 19.7735 8.04575 19.3943C8.04805 19.3903 8.05028 19.3863 8.05251 19.3823L13.012 10.3046C14.1957 8.13781 14.1618 5.56594 12.9211 3.42484ZM7.00005 9.06246C5.44922 9.06246 4.18755 7.80078 4.18755 6.24996C4.18755 4.69914 5.44922 3.43746 7.00005 3.43746C8.55087 3.43746 9.81255 4.69914 9.81255 6.24996C9.81255 7.80078 8.5509 9.06246 7.00005 9.06246Z" fill="currentColor"/>
</svg>
