<svg width="10" height="10" viewBox="0 0 10 10" fill="none" xmlns="http://www.w3.org/2000/svg">
<g clip-path="url(#clip0_17_41)">
<path d="M9.97394 3.83598C9.90847 3.6335 9.72887 3.48968 9.51639 3.47053L6.63011 3.20845L5.4888 0.537102C5.40465 0.341327 5.21299 0.2146 5.00005 0.2146C4.78711 0.2146 4.59545 0.341327 4.5113 0.53756L3.36999 3.20845L0.483257 3.47053C0.271154 3.49014 0.0920116 3.6335 0.0261682 3.83598C-0.0396751 4.03847 0.0211327 4.26057 0.181583 4.40057L2.36326 6.31392L1.71994 9.14778C1.67286 9.35615 1.75374 9.57153 1.92662 9.6965C2.01955 9.76364 2.12827 9.79782 2.23791 9.79782C2.33244 9.79782 2.42621 9.77234 2.51036 9.72198L5.00005 8.23399L7.48882 9.72198C7.67094 9.83155 7.90052 9.82155 8.07302 9.6965C8.24599 9.57115 8.32678 9.35569 8.27971 9.14778L7.63638 6.31392L9.81806 4.40096C9.97851 4.26057 10.0398 4.03886 9.97394 3.83598Z" fill="#FFC107"/>
</g>
<defs>
<clipPath id="clip0_17_41">
<rect width="10" height="10" fill="white"/>
</clipPath>
</defs>
</svg>
