<svg width="21" height="20" viewBox="0 0 21 20" fill="none" xmlns="http://www.w3.org/2000/svg">
<g clip-path="url(#clip0_7_817)">
<path d="M10.7933 9.63406C12.1168 9.63406 13.2629 9.15936 14.1993 8.22278C15.1357 7.28635 15.6104 6.14057 15.6104 4.81688C15.6104 3.49364 15.1357 2.34771 14.1992 1.41097C13.2626 0.474699 12.1166 0 10.7933 0C9.46956 0 8.32378 0.474699 7.38735 1.41113C6.45093 2.34756 5.97607 3.49349 5.97607 4.81688C5.97607 6.14057 6.45093 7.2865 7.38751 8.22293C8.32409 9.1592 9.47002 9.63406 10.7933 9.63406Z" fill="currentColor"/>
<path d="M19.222 15.379C19.195 14.9893 19.1404 14.5642 19.06 14.1152C18.9788 13.663 18.8743 13.2354 18.7491 12.8447C18.6199 12.4408 18.4441 12.0419 18.2268 11.6597C18.0013 11.2629 17.7364 10.9175 17.4392 10.6332C17.1284 10.3358 16.7478 10.0967 16.3077 9.9223C15.8692 9.74881 15.3832 9.66092 14.8634 9.66092C14.6592 9.66092 14.4617 9.74469 14.0804 9.99295C13.8457 10.146 13.5712 10.323 13.2648 10.5188C13.0029 10.6857 12.6479 10.8421 12.2096 10.9837C11.7819 11.1221 11.3476 11.1923 10.919 11.1923C10.4904 11.1923 10.0562 11.1221 9.62808 10.9837C9.19016 10.8422 8.83524 10.6858 8.57355 10.5189C8.27006 10.325 7.9954 10.148 7.75721 9.9928C7.37635 9.74454 7.17875 9.66077 6.97459 9.66077C6.45457 9.66077 5.96874 9.74881 5.53035 9.92245C5.0906 10.0966 4.70989 10.3357 4.39877 10.6334C4.10168 10.9178 3.83663 11.2631 3.61142 11.6597C3.39428 12.0419 3.2185 12.4406 3.08911 12.8448C2.96414 13.2356 2.85962 13.663 2.77844 14.1152C2.69803 14.5635 2.6434 14.9888 2.61639 15.3794C2.58984 15.7621 2.57642 16.1593 2.57642 16.5605C2.57642 17.6045 2.90829 18.4496 3.56274 19.073C4.2091 19.688 5.06435 20.0001 6.10439 20.0001H15.7345C16.7745 20.0001 17.6295 19.6882 18.276 19.073C18.9306 18.4501 19.2624 17.6048 19.2624 16.5603C19.2623 16.1573 19.2487 15.7598 19.222 15.379Z" fill="currentColor"/>
</g>
<defs>
<clipPath id="clip0_7_817">
<rect width="19.9999" height="20" fill="white" transform="translate(0.935791)"/>
</clipPath>
</defs>
</svg>
